<svg width="314" height="110" viewBox="0 0 314 110" fill="none" xmlns="http://www.w3.org/2000/svg">
<path d="M13.6048 10.6187C13.9034 11.7407 14.9576 15.3512 16.3511 18.7502C17.7796 22.2346 19.9299 25.3819 21.9671 28.5162C24.0612 31.7382 26.1872 34.7339 28.5637 37.754C31.03 40.8883 33.5757 43.7828 35.9917 46.8029C38.5467 49.9966 41.041 53.3611 44.1696 56.7917C47.5889 60.5411 50.8409 63.1655 53.861 65.7693C56.8085 68.3106 59.8898 70.4816 62.7221 72.7834C65.6102 75.1305 68.8618 77.4175 71.9588 79.6085C74.9844 81.749 78.5124 83.6024 82.0992 85.4914C85.5941 87.332 89.6697 89.1087 93.4103 90.8834C96.7532 92.4695 100.23 93.787 103.666 95.1828C107.183 96.6113 110.862 97.4834 114.524 98.4268C118.416 99.4296 122.323 100.198 126.061 100.916C130.101 101.693 134.163 102.311 138.03 103.002C142.653 103.827 146.96 104.375 151.228 104.868C155.222 105.329 158.971 105.886 163.196 106.375C167.193 106.839 174.096 107.243 186.658 107.47C191.79 107.562 195.691 106.857 199.469 106.628C203.255 106.399 207.156 105.635 210.968 105.022C214.648 104.43 218.39 103.416 222.091 102.305C225.77 101.202 229.702 100.2 233.44 99.0896C237.316 97.9382 241.09 96.6031 244.939 95.3386C248.838 94.0576 252.699 92.395 256.327 90.7457C260.103 89.0286 263.187 86.7305 266.169 84.1665C269.962 80.9039 272.539 78.0099 275.256 74.7975C279.006 70.3641 282.719 66.7614 285.212 63.9234C289.143 59.4488 294.786 53.209 297.352 50.1424C299.771 47.2523 301.649 44.0209 303.501 40.7287C305.32 37.4941 306.554 33.9955 308.064 30.6224C308.816 28.9421 309.574 27.2492 310.326 25.5689C310.705 24.7225 311.078 23.8886 311.915 22.3404" stroke="white" stroke-width="4" stroke-linecap="round"/>
<path d="M5.31767 2.00037C5.54163 3.12243 6.14565 10.167 5.72755 15.8225C5.42382 19.9311 4.15983 23.4734 3.43053 27.0975C3.24717 28.0086 3.01132 28.9027 2.81837 29.8121C2.62542 30.7215 2.47382 31.6174 3.77566 31.9215C12.3111 33.9156 24.1728 26.8641 31.0646 24.9288C34.9109 23.8488 38.8636 22.7891 41.5867 21.1422C44.1591 19.5863 35.9317 17.3544 32.4804 15.8958C29.0375 14.4407 25.7467 12.9119 22.3735 11.6072C19.0259 10.3124 15.6398 9.15859 12.2666 7.74133C8.9199 6.33518 5.5329 4.87234 2.76039 4.12811C-0.0590276 3.37128 5.74019 10.1719 7.5149 13.4939C9.2328 16.7097 9.21722 20.3519 9.29128 22.3418C9.38746 24.9261 9.88318 16.0921 10.2994 12.4163C10.404 11.4925 10.5619 10.5839 10.5239 10.5569C8.28998 8.9675 9.40861 17.128 9.21451 21.657C9.16896 22.7198 9.39942 23.6161 9.88693 23.849C12.6688 25.1782 14.3718 18.9595 15.1273 16.2611C15.9144 13.4494 10.1552 21.1179 8.56509 23.9869C8.32782 24.415 9.63378 24.5133 10.468 24.2835C14.0014 23.3101 16.9486 20.3072 19.4794 18.8343C21.9649 17.3876 15.9083 23.4866 15.3191 24.5385C15.0923 24.9434 16.3011 25.2872 17.2443 25.287C21.2356 25.2865 23.9946 23.4493 25.2715 23.4367C25.7507 23.4319 25.4918 24.6208 24.9542 25.4543C22.6163 29.0791 18.527 30.4323 15.9864 31.867C13.1443 33.472 20.3259 24.6088 21.8778 20.6247C22.6142 18.7341 22.2963 16.714 21.6118 15.26C21.2873 14.5707 20.1693 14.564 19.2838 14.6725C17.5115 14.8897 16.0231 16.1361 14.7242 17.4143C13.4187 18.6988 12.8027 20.5067 12.9061 22.0501C12.9547 22.7756 14.1327 23.0698 15.0048 23.072C16.7395 23.0763 18.3653 21.8499 19.9828 20.7817C21.5256 19.4104 22.5187 17.7198 22.4412 16.4869C22.1396 16.1636 21.3058 16.4542 19.9873 18.1109" stroke="white" stroke-width="4" stroke-linecap="round"/>
</svg>
