<svg width="1920" height="1080" viewBox="0 0 1920 1080" fill="none" xmlns="http://www.w3.org/2000/svg">
<g clip-path="url(#clip0_22_2)">
<rect width="1920" height="1080" fill="white"/>
<rect x="-2" width="1922" height="981" fill="url(#paint0_linear_22_2)"/>
<path d="M-68 711.253V327.487L203.5 291.621L341 404.599L613 253.065L745 291.621L947.5 327.487L1281 291.621L1470.5 198.369H1784L1922 136.5V1073.5H-68V711.253Z" fill="url(#paint1_linear_22_2)"/>
<rect x="1676.99" y="249.473" width="51.027" height="6.37838" fill="#B79300"/>
<rect x="1673.8" y="228.743" width="9.56757" height="27.1081" fill="url(#paint2_linear_22_2)"/>
<rect x="1688.15" y="228.743" width="9.56757" height="27.1081" fill="url(#paint3_linear_22_2)"/>
<rect x="1705.69" y="228.743" width="11.1622" height="27.1081" fill="url(#paint4_linear_22_2)"/>
<rect x="1720.04" y="228.743" width="11.1622" height="27.1081" fill="url(#paint5_linear_22_2)"/>
<rect x="1678.58" y="206.419" width="9.56757" height="14.3514" fill="url(#paint6_linear_22_2)"/>
<rect x="1696.12" y="206.419" width="11.1622" height="14.3514" fill="url(#paint7_linear_22_2)"/>
<rect x="1715.26" y="206.419" width="11.1622" height="14.3514" fill="url(#paint8_linear_22_2)"/>
<path d="M1700.5 179H1703.5L1704.15 186.18L1736.54 204.579L1740.2 205.192L1745.55 200.439L1743.51 206.419H1659.89L1657.85 200.439L1663.81 205.192L1668.09 204.579L1699.87 186.18L1700.5 179Z" fill="#FFD324"/>
<path d="M1703.52 217.581H1726.91L1749.96 225.799L1754.96 226.781L1761.5 223.162L1759.47 228.743H1645.53L1643.5 223.162L1650.88 226.781L1656.71 225.799L1676.56 217.581H1703.52Z" fill="#FFD429"/>
<path d="M-36.5 698.789V529.044L283 491.323L464 371.872H797L1076 446.616L1312 371.872L1496.5 271.282L1642 251.024L1953.5 251.024V981H-36.5V698.789Z" fill="url(#paint9_linear_22_2)"/>
<path d="M-36.5 770.256V545.949L283 615.328L616 497.437L1022.5 572.032L1132 497.437L1312 526.127L1633.5 572.032L1758.5 337.292L1953.5 270V981H-36.5V770.256Z" fill="url(#paint10_linear_22_2)"/>
<path d="M-36.5 751L234 682.5L614.5 790.5L938 682.5L1255 709.5L1667.5 649.5L1953.5 411V1092.5H-36.5L-36.5 751Z" fill="url(#paint11_linear_22_2)"/>
</g>
<defs>
<linearGradient id="paint0_linear_22_2" x1="867.405" y1="-63" x2="867.405" y2="312.5" gradientUnits="userSpaceOnUse">
<stop stop-color="#2E3B00"/>
<stop offset="1" stop-color="#283300"/>
</linearGradient>
<linearGradient id="paint1_linear_22_2" x1="981.5" y1="258.3" x2="981.5" y2="449.5" gradientUnits="userSpaceOnUse">
<stop stop-color="#43561D"/>
<stop offset="1" stop-color="#384818"/>
</linearGradient>
<linearGradient id="paint2_linear_22_2" x1="1678.58" y1="228.743" x2="1678.58" y2="255.851" gradientUnits="userSpaceOnUse">
<stop stop-color="#280000"/>
<stop offset="1" stop-color="#8E0000"/>
</linearGradient>
<linearGradient id="paint3_linear_22_2" x1="1692.93" y1="228.743" x2="1692.93" y2="255.851" gradientUnits="userSpaceOnUse">
<stop stop-color="#280000"/>
<stop offset="1" stop-color="#8E0000"/>
</linearGradient>
<linearGradient id="paint4_linear_22_2" x1="1711.27" y1="228.743" x2="1711.27" y2="255.851" gradientUnits="userSpaceOnUse">
<stop stop-color="#280000"/>
<stop offset="1" stop-color="#8E0000"/>
</linearGradient>
<linearGradient id="paint5_linear_22_2" x1="1725.62" y1="228.743" x2="1725.62" y2="255.851" gradientUnits="userSpaceOnUse">
<stop stop-color="#280000"/>
<stop offset="1" stop-color="#8E0000"/>
</linearGradient>
<linearGradient id="paint6_linear_22_2" x1="1683.36" y1="206.419" x2="1683.36" y2="220.77" gradientUnits="userSpaceOnUse">
<stop stop-color="#280000"/>
<stop offset="1" stop-color="#8E0000"/>
</linearGradient>
<linearGradient id="paint7_linear_22_2" x1="1701.7" y1="206.419" x2="1701.7" y2="220.77" gradientUnits="userSpaceOnUse">
<stop stop-color="#280000"/>
<stop offset="1" stop-color="#8E0000"/>
</linearGradient>
<linearGradient id="paint8_linear_22_2" x1="1720.84" y1="206.419" x2="1720.84" y2="220.77" gradientUnits="userSpaceOnUse">
<stop stop-color="#280000"/>
<stop offset="1" stop-color="#8E0000"/>
</linearGradient>
<linearGradient id="paint9_linear_22_2" x1="972.5" y1="424.263" x2="972.5" y2="583" gradientUnits="userSpaceOnUse">
<stop stop-color="#4A5E21"/>
<stop offset="1" stop-color="#354418"/>
</linearGradient>
<linearGradient id="paint10_linear_22_2" x1="958.5" y1="555.339" x2="958.5" y2="693.5" gradientUnits="userSpaceOnUse">
<stop stop-color="#576F25"/>
<stop offset="1" stop-color="#516723"/>
</linearGradient>
<linearGradient id="paint11_linear_22_2" x1="958.5" y1="677.5" x2="958.5" y2="975.5" gradientUnits="userSpaceOnUse">
<stop stop-color="#5C7628"/>
<stop offset="1" stop-color="#536A25"/>
</linearGradient>
<clipPath id="clip0_22_2">
<rect width="1920" height="1080" fill="white"/>
</clipPath>
</defs>
</svg>
