<svg width="119" height="77" viewBox="0 0 119 77" fill="none" xmlns="http://www.w3.org/2000/svg">
<rect x="33.4863" y="70.473" width="51.027" height="6.37838" fill="#B79300"/>
<rect x="30.2974" y="49.7432" width="9.56757" height="27.1081" fill="url(#paint0_linear_22_48)"/>
<rect x="44.6484" y="49.7432" width="9.56757" height="27.1081" fill="url(#paint1_linear_22_48)"/>
<rect x="62.189" y="49.7432" width="11.1622" height="27.1081" fill="url(#paint2_linear_22_48)"/>
<rect x="76.5405" y="49.7432" width="11.1622" height="27.1081" fill="url(#paint3_linear_22_48)"/>
<rect x="35.0811" y="27.4189" width="9.56757" height="14.3514" fill="url(#paint4_linear_22_48)"/>
<rect x="52.6216" y="27.4189" width="11.1622" height="14.3514" fill="url(#paint5_linear_22_48)"/>
<rect x="71.7568" y="27.4189" width="11.1622" height="14.3514" fill="url(#paint6_linear_22_48)"/>
<path d="M57.0002 0H60.0002L60.6475 7.17983L93.0379 25.579L96.7047 26.1923L102.054 21.4392L100.015 27.4189H16.3912L14.3516 21.4392L20.3122 26.1923L24.5902 25.579L56.3695 7.17983L57.0002 0Z" fill="#FFD324"/>
<path d="M60.0172 38.5811H83.4138L106.46 46.7994L111.456 47.7807L118 44.1622L115.966 49.7432H2.03448L0 44.1622L7.37668 47.7807L13.2051 46.7994L33.0551 38.5811H60.0172Z" fill="#FFD429"/>
<defs>
<linearGradient id="paint0_linear_22_48" x1="35.0811" y1="49.7432" x2="35.0811" y2="76.8513" gradientUnits="userSpaceOnUse">
<stop stop-color="#280000"/>
<stop offset="1" stop-color="#8E0000"/>
</linearGradient>
<linearGradient id="paint1_linear_22_48" x1="49.4322" y1="49.7432" x2="49.4322" y2="76.8513" gradientUnits="userSpaceOnUse">
<stop stop-color="#280000"/>
<stop offset="1" stop-color="#8E0000"/>
</linearGradient>
<linearGradient id="paint2_linear_22_48" x1="67.77" y1="49.7432" x2="67.77" y2="76.8513" gradientUnits="userSpaceOnUse">
<stop stop-color="#280000"/>
<stop offset="1" stop-color="#8E0000"/>
</linearGradient>
<linearGradient id="paint3_linear_22_48" x1="82.1216" y1="49.7432" x2="82.1216" y2="76.8513" gradientUnits="userSpaceOnUse">
<stop stop-color="#280000"/>
<stop offset="1" stop-color="#8E0000"/>
</linearGradient>
<linearGradient id="paint4_linear_22_48" x1="39.8648" y1="27.4189" x2="39.8648" y2="41.7703" gradientUnits="userSpaceOnUse">
<stop stop-color="#280000"/>
<stop offset="1" stop-color="#8E0000"/>
</linearGradient>
<linearGradient id="paint5_linear_22_48" x1="58.2027" y1="27.4189" x2="58.2027" y2="41.7703" gradientUnits="userSpaceOnUse">
<stop stop-color="#280000"/>
<stop offset="1" stop-color="#8E0000"/>
</linearGradient>
<linearGradient id="paint6_linear_22_48" x1="77.3379" y1="27.4189" x2="77.3379" y2="41.7703" gradientUnits="userSpaceOnUse">
<stop stop-color="#280000"/>
<stop offset="1" stop-color="#8E0000"/>
</linearGradient>
</defs>
</svg>
